<?xml version="1.0" encoding="UTF-8" standalone="no"?>
<svg
   xmlns:dc="http://purl.org/dc/elements/1.1/"
   xmlns:cc="http://creativecommons.org/ns#"
   xmlns:rdf="http://www.w3.org/1999/02/22-rdf-syntax-ns#"
   xmlns:svg="http://www.w3.org/2000/svg"
   xmlns="http://www.w3.org/2000/svg"
   xmlns:sodipodi="http://sodipodi.sourceforge.net/DTD/sodipodi-0.dtd"
   xmlns:inkscape="http://www.inkscape.org/namespaces/inkscape"
   width="644.45551"
   height="515.58887"
   version="1.1"
   id="svg873"
   sodipodi:docname="cow.svg"
   inkscape:version="0.92.2 (5c3e80d, 2017-08-06)"
   viewBox="0 0 2900.0498 2320.1499">
  <metadata
     id="metadata879">
    <rdf:RDF>
      <cc:Work
         rdf:about="">
        <dc:format>image/svg+xml</dc:format>
        <dc:type
           rdf:resource="http://purl.org/dc/dcmitype/StillImage" />
        <dc:title></dc:title>
      </cc:Work>
    </rdf:RDF>
  </metadata>
  <defs
     id="defs877" />
  <sodipodi:namedview
     pagecolor="#ffffff"
     bordercolor="#666666"
     borderopacity="1"
     objecttolerance="10"
     gridtolerance="10"
     guidetolerance="10"
     inkscape:pageopacity="0"
     inkscape:pageshadow="2"
     inkscape:window-width="1920"
     inkscape:window-height="1017"
     id="namedview875"
     showgrid="false"
     fit-margin-top="0"
     fit-margin-left="0"
     fit-margin-right="0"
     fit-margin-bottom="0"
     inkscape:zoom="0.9728934"
     inkscape:cx="487.95214"
     inkscape:cy="230.68688"
     inkscape:window-x="-8"
     inkscape:window-y="-8"
     inkscape:window-maximized="1"
     inkscape:current-layer="svg873"
     scale-x="4.5" />
  <path
     d="m 1852.5165,1565.0447 h 154.18 c 13.865,181.564 32.415,358.243 0,536.545 h -154.18 c 23.729,-171.588 19.543,-354.303 0,-536.544 z m -657.831,100.731 h 160.346 c -29.951,126.366 -24.614,256.712 0,388.532 h -160.346 c -22.488,-117.908 -15.894,-243.303 0,-388.532 z"
     id="path815"
     inkscape:connector-curvature="0"
     style="fill:#f8f3e0;stroke:#000000;stroke-width:26.45700073;stroke-linejoin:round" />
  <path
     d="m 1196.4535,2054.3077 h 158.578 c 0,0 41.576,117.291 28.637,142.656 -12.938,25.365 -87.692,18.69 -87.692,18.69 l -8.626,-108.134 -1.438,110.804 c 0,0 -79.067,10.68 -100.63,-1.335 -21.565,-12.015 11.17,-162.68 11.17,-162.68 z m 656.063,47.282 h 154.18 c 0,0 -12.335,11.306 -8.223,31.864 4.111,20.557 26.724,115.12 15.417,128.482 -11.306,13.363 -95.59,7.195 -95.59,7.195 l 2.055,-118.204 -11.306,119.232 c 0,0 -81.202,-2.056 -90.452,-18.501 -9.251,-16.446 33.92,-150.068 33.92,-150.068 z"
     id="path817"
     inkscape:connector-curvature="0"
     style="fill:#b14217;fill-rule:evenodd;stroke:#000000;stroke-width:26.45700073;stroke-linejoin:round" />
  <path
     d="m 2010.8075,1834.3447 c 0,0 -62.7,-25.696 -81.201,20.558 -18.502,46.254 13.362,44.198 18.501,72.978 5.14,28.78 -43.17,33.92 -25.696,74.006 17.473,40.087 78.117,57.56 78.117,57.56 0,0 15.418,-55.504 13.363,-115.12 -2.056,-59.616 -3.084,-109.981 -3.084,-109.981 z m -810.514,-113.459 c 0,0 38.622,-12.72 35.314,15.944 -3.308,28.663 27.457,7.37 33.212,40.544 5.755,33.174 -23.8,26.741 -22.688,48.395 1.114,21.654 25.046,15.496 20.89,40.007 -4.156,24.511 -22.109,58.709 -53.318,66.607 -31.21,7.898 -24.598,-25.765 -24.598,-25.765 z"
     id="path819"
     inkscape:connector-curvature="0"
     style="fill:#52504a;fill-rule:evenodd" />
  <g
     id="g829"
     style="fill-rule:evenodd"
     transform="translate(-44.9165,-84.165301)">
    <path
       d="m 1751.477,1707.799 c 0,0 425.535,176.792 579.714,-96.619 154.18,-273.411 -735.95,-34.947 -579.714,96.619 z"
       id="path821"
       inkscape:connector-curvature="0"
       style="fill:#f1c6e3;stroke:#000000;stroke-width:26.45700073;stroke-linejoin:round" />
    <path
       d="m 1861.356,1743.613 101.026,15.99 -53.784,85.036 c 0,0 -18.897,34.887 -57.418,21.078 -31.98,-16.717 -22.53,-46.516 -22.53,-46.516 z"
       id="path823"
       inkscape:connector-curvature="0"
       style="fill:#f1c6e3;stroke:#000000;stroke-width:26.45700073;stroke-linejoin:round" />
    <path
       d="m 2064.135,1762.51 87.217,-14.536 53.057,50.876 c 0,0 21.804,22.531 -9.448,44.336 -31.253,21.804 -62.506,-10.903 -62.506,-10.903 z"
       id="path825"
       inkscape:connector-curvature="0"
       style="fill:#f1c6e3;stroke:#000000;stroke-width:26.45700073" />
    <path
       d="m 2083.759,1675.293 c 0,0 2.907,39.247 47.97,41.428 45.061,2.18 37.793,-26.165 37.793,-26.165 0,0 10.903,8.722 25.439,2.907 14.536,-5.814 27.618,-38.52 27.618,-38.52 z"
       id="path827"
       inkscape:connector-curvature="0"
       style="fill:#52504a" />
  </g>
  <g
     id="g839"
     transform="translate(-44.9165,-84.165301)">
    <path
       d="m 2236.628,1529.979 h 172.68 c 23.456,243.758 30.673,502.284 0,684.556 h -172.68 c 38.18,-212.855 22.034,-449.075 0,-684.556 z"
       id="path831"
       inkscape:connector-curvature="0"
       style="fill:#f8f3e0;stroke:#000000;stroke-width:26.45700073;stroke-linecap:round;stroke-linejoin:round" />
    <path
       d="m 916.853,1653.322 h 148.012 c -23.934,182.006 -36.02,362.01 0,511.876 H 916.853 c -39.96,-166.855 -11.822,-339.758 0,-511.876 z"
       id="path833"
       inkscape:connector-curvature="0"
       style="fill:#f8f3e0;stroke:#000000;stroke-width:26.45700073;stroke-linejoin:round" />
    <path
       d="M 1064.865,2165.198 H 916.853 c 0,0 -24.333,89.36 -19.972,132.97 4.361,43.608 90.124,10.175 90.124,10.175 l -5.814,-103.207 21.804,116.29 c 0,0 66.867,-7.269 79.95,-24.712 13.082,-17.444 -18.08,-131.516 -18.08,-131.516 z m 1344.444,49.337 c 0,0 15.417,150.068 8.222,167.541 -7.195,17.474 -97.647,4.112 -97.647,4.112 l 6.168,-126.427 -12.335,129.51 c 0,0 -111.009,-5.139 -111.009,-24.668 0,-19.53 33.92,-150.068 33.92,-150.068 z"
       id="path835"
       inkscape:connector-curvature="0"
       style="fill:#b14217;fill-rule:evenodd;stroke:#000000;stroke-width:26.45700073;stroke-linejoin:round" />
    <path
       d="m 2416.448,1787.972 c 0,0 -51.393,58.588 -48.31,92.508 3.084,33.92 23.641,48.31 20.557,67.839 -3.083,19.53 -22.612,35.975 -21.585,87.368 1.028,51.393 -15.418,71.95 -28.78,79.145 -13.362,7.195 -61.671,1.028 -70.922,24.669 -9.251,23.64 -12.335,61.672 -12.335,61.672 l 145.957,1.028 c 0,0 21.585,-197.35 18.501,-240.52 -3.083,-43.17 -3.083,-173.709 -3.083,-173.709 z"
       id="path837"
       inkscape:connector-curvature="0"
       style="fill:#52504a;fill-rule:evenodd" />
  </g>
  <g
     id="g843"
     transform="translate(-44.9165,-84.165301)">
    <path
       d="m 2523.478,736.983 15.99,126.465 c 0,0 27.618,-20.35 71.227,30.526 43.608,50.877 143.908,235.486 162.805,308.167 18.897,72.68 65.413,257.29 59.598,325.61 -5.814,68.32 -27.619,129.372 -11.629,183.155 15.99,53.784 79.95,139.548 79.95,139.548 0,0 -34.888,-110.475 -31.98,-155.537 2.907,-45.062 34.886,138.093 34.886,138.093 0,0 7.268,-87.217 -8.721,-145.362 -15.99,-58.144 21.804,75.589 21.804,75.589 0,0 23.258,-69.774 10.175,-125.011 -13.082,-55.238 -33.433,-91.578 -33.433,-91.578 0,0 -8.722,-132.28 -31.98,-228.218 -23.257,-95.939 -59.598,-228.218 -85.763,-296.538 -26.165,-68.32 -88.67,-207.867 -167.166,-263.104 -78.495,-55.238 -85.763,-21.805 -85.763,-21.805 z"
       id="path841"
       inkscape:connector-curvature="0"
       style="fill:#f8f3e0;fill-rule:evenodd;stroke:#000000;stroke-width:26.45700073;stroke-linejoin:round" />
  </g>
  <g
     id="g851"
     transform="translate(-44.9165,-84.165301)">
    <path
       d="m 2561.432,1110.611 c 0,160.838 5.749,236.97 -173.392,445.263 -142.919,166.175 -536.992,121.998 -796.91,173.51 -285.552,56.592 -604.008,53.474 -768.129,-124.173 -148.733,-160.99 -182.204,-261.46 -210.395,-465.82 -14.492,-105.049 264.332,-619.748 674.989,-601.497 176.834,7.858 218.657,-95.39 455.659,-83.059 296.487,15.427 362.436,111.586 599.56,74.836 216.593,-33.569 218.618,420.103 218.618,580.94 z"
       id="path845"
       inkscape:connector-curvature="0"
       style="fill:#f8f3e0;stroke:#000000;stroke-width:26.45700073" />
    <path
       d="m 1117.83,893.974 c 0,0 69.775,2.907 98.847,34.887 29.072,31.98 23.258,61.052 49.423,66.866 26.165,5.815 15.99,-23.258 15.99,-23.258 0,0 -5.815,-49.423 45.062,-45.062 50.876,4.361 79.949,23.258 95.938,49.423 15.99,26.165 17.444,87.217 46.516,100.3 29.072,13.082 59.598,33.433 84.31,61.052 24.711,27.618 11.629,82.856 49.423,100.3 37.794,17.442 66.866,58.144 61.052,100.299 -5.815,42.155 -26.165,62.505 -52.33,77.041 -26.166,14.536 -66.867,0 -78.496,34.887 -11.629,34.887 10.175,40.701 27.619,71.227 17.443,30.526 10.175,47.97 -2.907,56.691 -13.083,8.722 -30.526,15.99 -49.423,1.454 -18.897,-14.536 -71.228,-37.794 -95.939,-42.155 -24.711,-4.36 -93.031,-21.804 -110.475,-36.34 -17.443,-14.536 -52.33,-94.485 -77.042,-114.836 -24.71,-20.35 -68.32,-37.794 -116.289,-29.072 -47.97,8.721 -141,21.804 -171.526,-26.166 -30.526,-47.969 -84.31,-286.362 15.99,-376.486 100.299,-90.124 164.258,-61.052 164.258,-61.052 z"
       id="path847"
       inkscape:connector-curvature="0"
       style="fill:#52504a;fill-rule:evenodd" />
    <path
       d="m 1256.047,1748.4 c 0,0 -121.287,-3.598 -209.684,-29.295 -88.396,-25.696 9.765,-44.712 9.765,-44.712 0,0 68.353,-16.96 -19.53,-24.154 -87.881,-7.195 -52.42,-57.047 -52.42,-57.047 0,0 32.891,-49.85 25.696,-98.16 -7.195,-48.31 -28.78,-73.493 10.793,-104.328 39.573,-30.836 109.981,-20.558 114.093,3.083 4.111,23.641 -9.765,83.257 21.585,97.647 31.35,14.39 90.452,3.598 93.021,49.851 2.57,46.254 -47.281,71.437 -34.947,113.58 12.334,42.141 32.892,35.974 38.545,58.073 5.653,22.1 3.083,35.461 3.083,35.461 z M 1849,462.61 c 0,0 -37.794,36.341 -31.98,88.671 5.815,52.33 45.063,74.135 42.155,109.022 -2.907,34.886 -82.856,87.217 -94.485,125.01 -11.629,37.795 -52.33,106.115 46.516,132.28 98.846,26.165 90.124,21.804 98.846,62.505 8.722,40.701 78.495,106.114 78.495,151.176 0,45.062 -15.99,165.713 113.382,193.331 129.372,27.619 117.743,-107.567 141.001,-158.444 23.258,-50.876 88.67,-77.042 107.568,-120.65 18.897,-43.608 47.969,-100.3 -17.444,-151.176 -65.413,-50.877 -71.227,-30.526 -65.413,-66.866 5.815,-36.34 49.423,-39.248 72.681,-63.96 23.258,-24.711 72.681,-59.598 119.197,-58.144 46.515,1.453 55.237,11.629 55.237,11.629 0,0 -26.165,-82.856 -37.794,-101.753 -11.629,-18.897 -4.36,-10.176 -42.155,-55.238 -37.794,-45.062 -110.475,-17.443 -148.269,-13.082 -37.794,4.36 -119.196,0 -151.176,-10.176 -31.98,-10.175 -106.114,-31.98 -161.351,-39.247 C 1918.773,490.23 1849,462.61 1849,462.61 Z"
       id="path849"
       inkscape:connector-curvature="0"
       style="fill:#52504a;fill-rule:evenodd" />
  </g>
  <g
     id="g871"
     transform="translate(-44.9165,-84.165301)">
    <path
       d="m 58.145,723.9 c 0,0 141,-36.34 184.609,-97.391 43.608,-61.052 46.516,-82.856 50.876,-114.836 4.361,-31.98 94.902,-94.869 94.902,-94.869 L 357.59,671.571 c 0,0 -13.083,84.31 -84.31,123.557 -71.227,39.248 -123.558,10.175 -155.537,-8.722 C 85.763,767.509 58.145,723.901 58.145,723.901 Z M 1353.317,614.88 c 0,0 -207.867,-63.96 -228.218,-162.805 -20.35,-98.846 -98.265,-63.023 -98.265,-63.023 l 73.554,220.013 c 0,0 30.526,91.578 127.918,91.578 97.392,0 125.01,-85.763 125.01,-85.763 z"
       id="path853"
       inkscape:connector-curvature="0"
       style="fill:#f8f3e0;fill-rule:evenodd;stroke:#000000;stroke-width:26.45700073;stroke-linejoin:round" />
    <path
       d="m 1026.834,389.052 c 0,0 66.285,-53.267 72.1,-115.772 5.814,-62.506 -23.258,-175.888 -23.258,-175.888 0,0 139.547,97.393 120.65,225.31 -18.897,127.919 -120.65,222.404 -120.65,222.404 z M 382.301,430.27 c 0,0 -78.495,-61.051 -87.217,-162.805 -8.722,-101.753 31.98,-155.537 31.98,-155.537 0,0 -127.919,125.012 -107.568,264.559 20.35,139.547 145.362,215.135 145.362,215.135 z"
       id="path855"
       inkscape:connector-curvature="0"
       style="fill:#f6cf85;fill-rule:evenodd;stroke:#000000;stroke-width:26.45700073;stroke-linejoin:round" />
    <path
       d="m 388.532,416.804 c 0,0 111.008,-83.256 327.888,-79.144 216.879,4.111 310.414,51.393 310.414,51.393 0,0 101.758,223.046 93.535,427.59 -8.222,204.545 -55.504,289.858 -105.87,364.892 -50.364,75.034 -137.733,122.315 -241.547,145.956 -103.814,23.64 -203.516,-18.501 -262.105,-67.839 -58.588,-49.337 -160.346,-108.953 -167.541,-353.584 -7.195,-244.631 45.226,-489.263 45.226,-489.263 z"
       id="path857"
       inkscape:connector-curvature="0"
       style="fill:#f8f3e0;fill-rule:evenodd;stroke:#000000;stroke-width:26.45700073;stroke-linejoin:round" />
    <path
       d="m 832.195,355.59 c 0,0 0.727,37.794 -48.696,82.129 -49.423,44.335 -93.031,39.248 -57.418,101.026 35.614,61.779 22.531,66.14 17.444,71.954 -5.088,5.815 -28.346,34.16 -115.563,-42.881 -87.217,-77.042 -79.949,45.789 -83.583,65.412 -3.634,19.624 1.454,55.238 -66.14,69.047 -67.592,13.81 -111.928,-47.242 -111.928,-47.242 5.624,-77.855 17.409,-154.478 32.707,-230.399 -0.918,-1.835 151.434,-107.051 433.177,-69.046 z"
       id="path859"
       inkscape:connector-curvature="0"
       style="fill:#52504a;fill-rule:evenodd" />
    <ellipse
       cx="578.198"
       cy="623.90802"
       rx="49.109001"
       ry="78.953003"
       id="ellipse861"
       style="fill:#f8ffff;stroke:#000000;stroke-width:30.69499969;stroke-linecap:round;stroke-linejoin:round" />
    <ellipse
       cx="1001.832"
       cy="475.86899"
       rx="49.967999"
       ry="79.041"
       transform="rotate(9.1)"
       id="ellipse863"
       style="fill:#f8ffff;stroke:#000000;stroke-width:30.45299911;stroke-linecap:round;stroke-linejoin:round" />
    <path
       d="m 357.696,1024.27 c 0,0 95.591,-159.318 352.557,-188.098 256.965,-28.78 399.838,77.09 399.838,77.09 0,0 -11.307,319.665 -305.275,409.089 -293.969,89.424 -429.646,-231.27 -429.646,-231.27 z"
       id="path865"
       inkscape:connector-curvature="0"
       style="fill:#f1c6e3;fill-rule:evenodd;stroke:#000000;stroke-width:26.45700073;stroke-linejoin:round" />
    <ellipse
       ry="62.868999"
       rx="54.874001"
       cy="1002.632"
       cx="623.96503"
       id="ellipse867"
       style="fill:none;stroke:#000000;stroke-width:26.45700073;stroke-linecap:round;stroke-linejoin:round" />
    <ellipse
       cx="1134.38"
       cy="588.21301"
       rx="54.118"
       ry="69.017998"
       transform="rotate(22.148)"
       id="ellipse869"
       style="fill:none;stroke:#000000;stroke-width:26.51399994;stroke-linecap:round;stroke-linejoin:round" />
  </g>
</svg>
