<svg xmlns="http://www.w3.org/2000/svg" width="100" height="100"><ellipse cx="54.669" cy="86.124" rx="38.095" ry="6.553" fill-opacity=".417"/><path d="M63.879 61.962h5.316c.478 6.261 1.118 12.353 0 18.502H63.88c.818-5.917.674-12.218 0-18.502zm-22.684 3.474h5.53c-1.033 4.357-.85 8.852 0 13.397h-5.53c-.775-4.066-.548-8.39 0-13.397z" fill="#f8f3e0" stroke="#000" stroke-width=".912" stroke-linejoin="round"/><path d="M41.256 78.833h5.468s1.434 4.045.988 4.92c-.446.874-3.024.644-3.024.644l-.297-3.729-.05 3.82s-2.726.37-3.47-.045c-.744-.415.385-5.61.385-5.61zm22.623 1.63h5.316s-.425.39-.283 1.1c.141.708.921 3.969.531 4.43-.39.46-3.296.248-3.296.248l.071-4.076-.39 4.111s-2.8-.07-3.119-.638c-.319-.567 1.17-5.174 1.17-5.174z" fill="#b14217" fill-rule="evenodd" stroke="#000" stroke-width=".912" stroke-linejoin="round"/><path d="M69.337 71.248s-2.162-.886-2.8.71c-.638 1.594.46 1.523.638 2.516.177.992-1.489 1.17-.886 2.552.602 1.382 2.694 1.984 2.694 1.984s.531-1.914.46-3.97a302.2 302.2 0 0 1-.106-3.792zm-27.948-3.912s1.331-.439 1.217.55c-.114.988.947.254 1.146 1.398.198 1.144-.821.922-.783 1.669.039.746.864.534.72 1.38-.143.844-.762 2.024-1.838 2.296-1.076.272-.848-.889-.848-.889z" fill="#52504a" fill-rule="evenodd"/><g fill-rule="evenodd"><path d="M58.846 63.983s14.673 6.096 19.99-3.332c5.316-9.428-25.377-1.205-19.99 3.332z" fill="#f1c6e3" stroke="#000" stroke-width=".9122373599999999" stroke-linejoin="round"/><path d="M62.635 65.218l3.483.55-1.854 2.933s-.652 1.203-1.98.727c-1.103-.576-.777-1.604-.777-1.604z" fill="#f1c6e3" stroke="#000" stroke-width=".9122373599999999" stroke-linejoin="round"/><path d="M69.627 65.87l3.007-.502 1.83 1.754s.752.777-.326 1.53c-1.077.75-2.155-.377-2.155-.377z" fill="#f1c6e3" stroke="#000" stroke-width=".9122373599999999"/><path d="M70.304 62.862s.1 1.353 1.654 1.428c1.554.075 1.303-.902 1.303-.902s.376.3.877.1c.501-.2.953-1.328.953-1.328z" fill="#52504a"/></g><path d="M75.575 57.851h5.954c.81 8.405 1.058 17.32 0 23.605h-5.954c1.316-7.34.76-15.485 0-23.605z" fill="#f8f3e0" stroke="#000" stroke-width=".9122373599999999" stroke-linecap="round" stroke-linejoin="round"/><path d="M30.066 62.104h5.104c-.825 6.276-1.242 12.483 0 17.65h-5.104c-1.378-5.753-.407-11.715 0-17.65z" fill="#f8f3e0" stroke="#000" stroke-width=".9122373599999999" stroke-linejoin="round"/><path d="M35.17 79.755h-5.104s-.839 3.081-.688 4.585c.15 1.504 3.107.35 3.107.35l-.2-3.558.752 4.01s2.305-.25 2.756-.852c.452-.602-.623-4.535-.623-4.535zm46.36 1.701s.531 5.175.283 5.777c-.248.603-3.367.142-3.367.142l.213-4.36-.426 4.466s-3.828-.177-3.828-.85c0-.674 1.17-5.175 1.17-5.175z" fill="#b14217" fill-rule="evenodd" stroke="#000" stroke-width=".9122373599999999" stroke-linejoin="round"/><path d="M81.776 66.747s-1.773 2.02-1.666 3.19c.106 1.17.815 1.666.709 2.34-.107.673-.78 1.24-.745 3.012.036 1.772-.531 2.48-.992 2.729-.46.248-2.127.035-2.446.85-.319.816-.425 2.127-.425 2.127l5.033.036s.744-6.805.638-8.294c-.106-1.489-.106-5.99-.106-5.99z" fill="#52504a" fill-rule="evenodd"/><g><path d="M85.466 30.507l.552 4.36s.952-.701 2.456 1.053c1.503 1.755 4.962 8.12 5.613 10.626.652 2.507 2.256 8.872 2.056 11.228-.2 2.356-.953 4.461-.401 6.316.55 1.854 2.756 4.812 2.756 4.812s-1.203-3.81-1.102-5.364c.1-1.553 1.203 4.762 1.203 4.762s.25-3.007-.301-5.012c-.551-2.005.752 2.606.752 2.606s.802-2.406.35-4.31c-.45-1.905-1.152-3.158-1.152-3.158s-.301-4.562-1.103-7.87-2.055-7.87-2.957-10.225c-.903-2.356-3.058-7.168-5.765-9.072-2.706-1.905-2.957-.752-2.957-.752z" fill="#f8f3e0" fill-rule="evenodd" stroke="#000" stroke-width=".9122373599999999" stroke-linejoin="round"/></g><g><path d="M86.775 43.39c0 5.546.198 8.172-5.979 15.354-4.928 5.73-18.517 4.207-27.48 5.983-9.846 1.951-20.827 1.844-26.486-4.282-5.129-5.551-6.283-9.016-7.255-16.062-.5-3.623 9.115-21.37 23.275-20.741 6.098.27 7.54-3.29 15.712-2.864 10.224.532 12.498 3.847 20.674 2.58 7.47-1.157 7.539 14.486 7.539 20.032z" fill="#f8f3e0" stroke="#000" stroke-width=".9122373599999999"/><path d="M36.996 35.92s2.406.1 3.409 1.203c1.002 1.103.802 2.105 1.704 2.306.902.2.551-.802.551-.802s-.2-1.704 1.554-1.554c1.755.15 2.757.802 3.308 1.704.552.902.602 3.008 1.604 3.459a8.772 8.772 0 0 1 2.908 2.105c.852.952.4 2.857 1.704 3.459 1.303.601 2.305 2.004 2.105 3.458-.2 1.454-.902 2.155-1.804 2.657-.903.5-2.306 0-2.707 1.203-.401 1.203.35 1.403.952 2.456.602 1.052.351 1.654-.1 1.954-.451.301-1.053.552-1.704.05-.652-.5-2.456-1.303-3.308-1.453-.853-.15-3.208-.752-3.81-1.253-.601-.501-1.804-3.258-2.656-3.96-.852-.702-2.356-1.303-4.01-1.002-1.654.3-4.862.752-5.915-.903-1.053-1.654-2.907-9.874.551-12.982 3.459-3.107 5.664-2.105 5.664-2.105z" fill="#52504a" fill-rule="evenodd"/><path d="M41.762 65.383s-4.182-.124-7.23-1.01c-3.048-.887.337-1.542.337-1.542s2.357-.585-.674-.833c-3.03-.248-1.807-1.967-1.807-1.967s1.134-1.72.886-3.385c-.248-1.666-.993-2.534.372-3.598 1.365-1.063 3.792-.708 3.934.107.142.815-.337 2.87.744 3.367 1.081.496 3.12.124 3.208 1.719.089 1.595-1.63 2.463-1.205 3.916.425 1.453 1.134 1.24 1.33 2.003.194.762.105 1.223.105 1.223zM62.21 21.046s-1.304 1.253-1.103 3.057c.2 1.805 1.554 2.557 1.454 3.76-.1 1.203-2.857 3.007-3.258 4.31-.401 1.304-1.805 3.66 1.603 4.562 3.409.902 3.108.751 3.409 2.155.3 1.403 2.707 3.659 2.707 5.213 0 1.554-.552 5.714 3.91 6.666 4.46.953 4.06-3.709 4.861-5.463.802-1.755 3.058-2.657 3.71-4.16.651-1.504 1.654-3.46-.602-5.213-2.256-1.755-2.456-1.053-2.256-2.306.2-1.253 1.705-1.353 2.507-2.206.802-.852 2.506-2.055 4.11-2.004 1.604.05 1.904.4 1.904.4s-.902-2.857-1.303-3.508c-.4-.652-.15-.351-1.453-1.905-1.304-1.554-3.81-.601-5.113-.451-1.303.15-4.11 0-5.213-.35-1.103-.352-3.659-1.104-5.564-1.354-1.904-.25-4.31-1.203-4.31-1.203z" fill="#52504a" fill-rule="evenodd"/></g><g transform="translate(-1.549 5.094) scale(.03448)"><path d="M58.145 723.9s141-36.34 184.609-97.391c43.608-61.052 46.516-82.856 50.876-114.836 4.361-31.98 94.902-94.869 94.902-94.869L357.59 671.571s-13.083 84.31-84.31 123.557c-71.227 39.248-123.558 10.175-155.537-8.722-31.98-18.897-59.598-62.505-59.598-62.505zm1295.172-109.02s-207.867-63.96-228.218-162.805c-20.35-98.846-98.265-63.023-98.265-63.023l73.554 220.013s30.526 91.578 127.918 91.578c97.392 0 125.01-85.763 125.01-85.763z" fill="#f8f3e0" fill-rule="evenodd" stroke="#000" stroke-width="26.457" stroke-linejoin="round"/><path d="M1026.834 389.052s66.285-53.267 72.1-115.772c5.814-62.506-23.258-175.888-23.258-175.888s139.547 97.393 120.65 225.31c-18.897 127.919-120.65 222.404-120.65 222.404zM382.301 430.27s-78.495-61.051-87.217-162.805c-8.722-101.753 31.98-155.537 31.98-155.537S199.145 236.94 219.496 376.487c20.35 139.547 145.362 215.135 145.362 215.135z" fill="#f6cf85" fill-rule="evenodd" stroke="#000" stroke-width="26.457" stroke-linejoin="round"/><path d="M388.532 416.804S499.54 333.548 716.42 337.66c216.879 4.111 310.414 51.393 310.414 51.393s101.758 223.046 93.535 427.59c-8.222 204.545-55.504 289.858-105.87 364.892-50.364 75.034-137.733 122.315-241.547 145.956-103.814 23.64-203.516-18.501-262.105-67.839-58.588-49.337-160.346-108.953-167.541-353.584-7.195-244.631 45.226-489.263 45.226-489.263z" fill="#f8f3e0" fill-rule="evenodd" stroke="#000" stroke-width="26.457" stroke-linejoin="round"/><path d="M832.195 355.59s.727 37.794-48.696 82.129c-49.423 44.335-93.031 39.248-57.418 101.026 35.614 61.779 22.531 66.14 17.444 71.954-5.088 5.815-28.346 34.16-115.563-42.881-87.217-77.042-79.949 45.789-83.583 65.412-3.634 19.624 1.454 55.238-66.14 69.047-67.592 13.81-111.928-47.242-111.928-47.242 5.624-77.855 17.409-154.478 32.707-230.399-.918-1.835 151.434-107.051 433.177-69.046z" fill="#52504a" fill-rule="evenodd"/><ellipse cx="578.198" cy="623.908" rx="49.109" ry="78.953" fill="#f8ffff" stroke="#000" stroke-width="30.695" stroke-linecap="round" stroke-linejoin="round"/><ellipse cx="1001.832" cy="475.869" rx="49.968" ry="79.041" transform="rotate(9.1)" fill="#f8ffff" stroke="#000" stroke-width="30.453" stroke-linecap="round" stroke-linejoin="round"/><path d="M357.696 1024.27s95.591-159.318 352.557-188.098c256.965-28.78 399.838 77.09 399.838 77.09s-11.307 319.665-305.275 409.089c-293.969 89.424-429.646-231.27-429.646-231.27z" fill="#f1c6e3" fill-rule="evenodd" stroke="#000" stroke-width="26.457" stroke-linejoin="round"/><ellipse ry="62.869" rx="54.874" cy="1002.632" cx="623.965" fill="none" stroke="#000" stroke-width="26.457" stroke-linecap="round" stroke-linejoin="round"/><ellipse cx="1134.38" cy="588.213" rx="54.118" ry="69.018" transform="rotate(22.148)" fill="none" stroke="#000" stroke-width="26.514" stroke-linecap="round" stroke-linejoin="round"/></g></svg>