<svg xmlns="http://www.w3.org/2000/svg" width="100" height="100" viewBox="0 0 26.458 26.458"><path d="M25.923 13.983l-5.305-6.565L7.653 19.709l6.762 6.146z" fill="#86f099" stroke="#237a29" stroke-width=".794" stroke-linejoin="round" transform="matrix(1.06563 -.2675 .30526 .96329 -6.508 -.556)"/><g style="line-height:1.25"><path style="-inkscape-font-specification:'Open Sans Bold'" d="M18.89 9.423q.595.312.721.894.123.58-.234 1.322l.768.402-.282.467-.753-.395q-.523.821-1.206 1.289l-.99-.519q.341-.211.717-.562.377-.354.598-.669l-1.161-.608-.236.177q-.701.52-1.213.625-.514.098-1.02-.167-.544-.284-.659-.851-.117-.573.228-1.303l-.574-.3.283-.467.559.293q.51-.76 1.199-1.23l.683.78q-.562.405-.953.936l1.105.58q.684-.517 1.059-.689.377-.174.703-.174.328-.003.658.17zm-.566 1.055q-.157-.083-.336-.024-.179.059-.435.23l.933.488q.194-.508-.162-.694zm-3.104.177q.165.086.336.04.168-.05.421-.222l-.88-.461q-.195.476.123.643z" font-weight="700" font-size="26.667" font-family="Open Sans" aria-label="$" letter-spacing="0" word-spacing="0" fill="#237a29" stroke-width="2.654"/></g><path d="M25.9 17.789l-3.223-7.802-15.922 8.104 4.74 7.813z" fill="#86f099" stroke="#237a29" stroke-width=".794" stroke-linejoin="round"/><g style="line-height:1.25"><path style="-inkscape-font-specification:'Open Sans Bold'" d="M19.08 17.589q.289.548.073 1.1-.218.547-.89 1.003l.372.707-.467.258-.364-.693q-.84.443-1.614.51l-.479-.91q.375-.016.85-.132.48-.118.817-.278l-.561-1.07-.276.037q-.816.105-1.264-.053-.446-.162-.69-.628-.263-.5-.046-1.033.218-.54.873-.991l-.277-.528.467-.258.27.514q.799-.397 1.578-.463l.103.984q-.647.073-1.232.334l.535 1.017q.8-.109 1.18-.074.382.033.63.19.253.153.413.457zm-.998.619q-.076-.145-.244-.18-.169-.037-.457-.015l.451.858q.422-.335.25-.663zm-2.47-1.335q.08.152.235.195.156.038.442.013l-.425-.81q-.406.309-.252.602z" font-weight="700" font-size="26.667" font-family="Open Sans" aria-label="$" letter-spacing="0" word-spacing="0" fill="#237a29" stroke-width="2.654"/></g><g><path d="M25.923 13.983l-5.305-6.565L7.653 19.709l6.762 6.146z" fill="#86f099" stroke="#237a29" stroke-width=".794" stroke-linejoin="round" transform="matrix(.90668 -.62052 .62044 .7976 -18.414 8.783)"/><g style="line-height:1.25"><path d="M8.868 9.333q.667.087.987.589.316.501.24 1.32l.86.111-.104.536-.844-.109q-.205.951-.684 1.627l-1.107-.143q.246-.317.477-.776.231-.463.329-.835l-1.3-.168-.16.248q-.477.732-.922 1.007-.448.27-1.014.198-.608-.079-.913-.57-.308-.497-.239-1.302l-.641-.082.103-.536.625.08q.215-.889.699-1.568l.91.494q-.386.575-.568 1.209l1.237.16q.462-.722.755-1.013.293-.295.599-.407.306-.117.675-.07zm-.164 1.185q-.177-.023-.324.095-.147.117-.329.366l1.045.135q.006-.544-.392-.596zm-2.85 1.243q.184.024.328-.078.141-.106.319-.355l-.986-.127q-.018.514.339.56z" style="-inkscape-font-specification:'Open Sans Bold'" font-weight="700" font-size="26.667" font-family="Open Sans" aria-label="$" letter-spacing="0" word-spacing="0" fill="#237a29" stroke-width="2.654"/></g></g><g><path d="M25.923 13.983l-5.305-6.565L7.653 19.709l6.762 6.146z" fill="#86f099" stroke="#237a29" stroke-width=".794" stroke-linejoin="round" transform="matrix(1.05434 -.309 .34272 .9506 -14.238 5.759)"/><g style="line-height:1.25"><path style="-inkscape-font-specification:'Open Sans Bold'" d="M11.53 14.737q.608.288.757.865.145.574-.182 1.33l.783.372-.264.477-.768-.365q-.49.84-1.155 1.335l-1.008-.48q.332-.224.693-.59.364-.368.572-.691l-1.185-.563-.228.186q-.68.548-1.188.672-.51.119-1.026-.126-.554-.263-.69-.825-.14-.568.175-1.311l-.584-.278.264-.477.57.27q.48-.779 1.15-1.274l.712.752q-.545.427-.915.973l1.127.535q.663-.543 1.031-.729.37-.19.696-.202.327-.016.664.144zm-.523 1.075q-.16-.076-.337-.01-.176.066-.426.246l.952.452q.174-.515-.189-.688zm-3.095.299q.168.08.337.028.167-.057.413-.24l-.898-.426q-.176.484.148.638z" font-weight="700" font-size="26.667" font-family="Open Sans" aria-label="$" letter-spacing="0" word-spacing="0" fill="#237a29" stroke-width="2.654"/></g></g></svg>